<?xml version="1.0" encoding="UTF-8" standalone="no"?><!-- Generator: Gravit.io --><svg xmlns="http://www.w3.org/2000/svg" xmlns:xlink="http://www.w3.org/1999/xlink" style="isolation:isolate" viewBox="0 0 256 256" width="256pt" height="256pt"><defs><clipPath id="_clipPath_FTH5CHGiTytGgGaJbpXrZRv018eIRIiQ"><rect width="256" height="256"/></clipPath></defs><g clip-path="url(#_clipPath_FTH5CHGiTytGgGaJbpXrZRv018eIRIiQ)"><path d=" M 24 152.075 C 23.979 137.826 29.543 124.134 39.501 113.949 C 44.32 109.016 50.048 105.076 56.367 102.346 C 62.902 99.534 69.934 98.076 77.048 98.086 C 84.162 98.076 91.194 99.534 97.73 102.346 C 104.048 105.076 109.777 109.016 114.595 113.938 C 124.553 124.134 130.127 137.826 130.096 152.075 C 130.127 166.314 124.553 180.016 114.595 190.201 C 109.777 195.124 104.048 199.063 97.73 201.804 C 91.194 204.616 84.162 206.064 77.048 206.064 C 69.934 206.064 62.902 204.616 56.367 201.804 C 50.048 199.063 44.32 195.124 39.501 190.201 C 29.543 180.016 23.979 166.314 24 152.075 Z " fill="rgb(255,255,255)"/><ellipse vector-effect="non-scaling-stroke" cx="159.36124520970236" cy="128.05587685464116" rx="79.25491529611719" ry="80.05587685464118" fill="rgb(255,255,255)"/><path d=" M 29.379 152.075 C 29.359 139.245 34.374 126.906 43.343 117.738 C 47.666 113.314 52.812 109.773 58.49 107.315 C 64.358 104.787 70.668 103.493 77.048 103.493 C 83.428 103.493 89.748 104.787 95.606 107.315 C 101.284 109.773 106.43 113.314 110.764 117.738 C 119.722 126.906 124.737 139.245 124.717 152.075 C 124.737 164.895 119.722 177.234 110.764 186.403 C 106.43 190.826 101.284 194.368 95.606 196.825 C 89.748 199.353 83.428 200.657 77.048 200.657 C 70.668 200.657 64.358 199.353 58.49 196.825 C 52.812 194.368 47.666 190.826 43.343 186.403 C 34.374 177.234 29.359 164.895 29.379 152.075 Z  M 31.826 152.075 C 31.796 139.887 36.561 128.16 45.088 119.443 C 49.191 115.25 54.076 111.889 59.463 109.562 C 65.02 107.164 70.999 105.931 77.048 105.931 C 83.097 105.931 89.086 107.164 94.643 109.562 C 100.03 111.889 104.905 115.25 109.018 119.443 C 117.535 128.16 122.3 139.887 122.28 152.075 C 122.3 164.263 117.535 175.98 109.018 184.697 C 104.905 188.9 100.03 192.251 94.643 194.588 C 89.086 196.986 83.097 198.21 77.048 198.21 C 70.999 198.21 65.02 196.986 59.463 194.588 C 54.076 192.251 49.191 188.9 45.088 184.697 C 36.561 175.98 31.796 164.263 31.826 152.075 Z " fill-rule="evenodd" fill="rgb(222,44,104)"/><ellipse vector-effect="non-scaling-stroke" cx="159.36124520970242" cy="128.05587685464116" rx="66.24218451264625" ry="66.91163754466382" fill="rgb(255,255,255)" stroke-width="13.168" stroke="rgb(222,44,104)" stroke-linejoin="miter" stroke-linecap="butt" stroke-miterlimit="4"/><ellipse vector-effect="non-scaling-stroke" cx="159.58634771659612" cy="128.0125879644654" rx="50.63363440322295" ry="51.49069190105417" fill="none" stroke-width="2.433" stroke="rgb(222,44,104)" stroke-linejoin="miter" stroke-linecap="butt" stroke-miterlimit="4"/><path d=" M 65.828 129.228 L 55.476 129.228 L 63.756 137.078 L 47.193 137.078 L 47.193 144.927 L 63.756 144.927 L 55.476 152.777 L 65.828 152.777 L 78.25 141.002 L 65.828 129.228 Z " fill="rgb(255,204,51)"/><path d=" M 173.375 161.407 L 160.25 147.823 L 188.687 147.823 L 188.687 134.239 L 160.25 134.239 L 173.375 120.655 L 155.875 120.655 L 136.187 141.03 L 155.875 161.404 L 173.375 161.407 Z " fill="rgb(255,204,51)"/></g></svg>