<?xml version="1.0" encoding="UTF-8" standalone="no"?><!-- Generator: Gravit.io --><svg xmlns="http://www.w3.org/2000/svg" xmlns:xlink="http://www.w3.org/1999/xlink" style="isolation:isolate" viewBox="0 0 256 256" width="256pt" height="256pt"><clipPath id="_clipPath_tn9uKsjHTxcB2zhrBiAA8lWDEiynmMJO"><rect x="0" y="0" width="256" height="256" transform="matrix(1,0,0,1,0,0)" fill="rgb(255,255,255)"/></clipPath><g clip-path="url(#_clipPath_tn9uKsjHTxcB2zhrBiAA8lWDEiynmMJO)"><g><path d=" M 85.572 98.788 C 82.763 98.316 79.912 98.082 77.048 98.086 C 69.934 98.076 62.902 99.534 56.367 102.346 C 50.048 105.076 44.32 109.016 39.501 113.949 C 29.543 124.134 23.979 137.826 24 152.075 C 23.979 166.314 29.543 180.016 39.501 190.201 C 44.32 195.124 50.048 199.063 56.367 201.804 C 62.902 204.616 69.934 206.064 77.048 206.064 C 84.162 206.064 91.194 204.616 97.73 201.804 C 103.065 199.49 107.979 196.321 112.276 192.423 C 125.437 202.284 141.731 208.112 159.361 208.112 C 203.103 208.112 238.616 172.24 238.616 128.056 C 238.616 83.872 203.103 48 159.361 48 C 125.842 48 97.155 69.064 85.572 98.788 Z " fill-rule="evenodd" fill="rgb(255,255,255)"/><path d=" M 109.067 116.105 C 106.943 114.124 104.639 112.353 102.191 110.807 L 102.191 110.807 C 102.806 108.688 103.546 106.603 104.4 104.56 C 107.4 97.41 111.75 90.9 117.21 85.38 C 122.64 79.89 129.08 75.5 136.18 72.46 C 143.51 69.33 151.39 67.72 159.36 67.73 C 167.33 67.72 175.22 69.33 182.55 72.46 C 189.64 75.5 196.08 79.89 201.51 85.38 C 206.97 90.9 211.32 97.41 214.32 104.56 C 217.43 112 219.03 119.99 219.02 128.06 C 219.03 136.12 217.43 144.11 214.32 151.55 C 211.32 158.7 206.97 165.22 201.51 170.73 C 196.08 176.22 189.64 180.61 182.55 183.65 C 175.22 186.78 167.33 188.39 159.36 188.38 C 151.39 188.39 143.51 186.78 136.18 183.65 C 130.224 181.1 124.732 177.599 119.915 173.292 C 121.151 170.712 122.159 168.027 122.916 165.265 C 122.917 165.267 122.919 165.268 122.92 165.27 C 127.63 170.07 133.23 173.91 139.4 176.57 C 145.78 179.31 152.65 180.72 159.59 180.72 C 166.53 180.72 173.39 179.31 179.77 176.57 C 185.94 173.91 191.54 170.07 196.25 165.27 C 200.99 160.45 204.76 154.76 207.36 148.51 C 210.06 142.02 211.44 135.05 211.44 128.01 L 211.44 128.01 C 211.44 120.98 210.06 114.01 207.36 107.51 C 204.76 101.27 200.99 95.58 196.25 90.76 C 191.54 85.96 185.94 82.12 179.77 79.45 C 173.39 76.71 166.53 75.3 159.59 75.31 C 152.65 75.3 145.78 76.71 139.4 79.45 C 133.23 82.12 127.63 85.96 122.92 90.76 C 118.18 95.58 114.41 101.27 111.81 107.51 C 110.651 110.299 109.736 113.175 109.067 116.105 Z  M 111.137 118.126 C 119.861 127.252 124.737 139.425 124.717 152.075 C 124.722 155.592 124.349 159.072 123.61 162.458 C 123.953 162.831 124.304 163.198 124.66 163.56 C 129.15 168.14 134.48 171.8 140.37 174.34 C 146.44 176.95 152.98 178.29 159.59 178.29 L 159.59 178.29 C 166.2 178.29 172.73 176.95 178.81 174.34 C 184.69 171.8 190.03 168.14 194.51 163.56 C 199.04 158.96 202.64 153.54 205.11 147.58 C 207.69 141.38 209.01 134.73 209 128.01 L 209 128.01 L 209 128.01 C 209 128.01 209 128.01 209 128.01 L 209 128.01 C 209.01 121.3 207.69 114.65 205.11 108.44 C 202.64 102.49 199.04 97.06 194.51 92.46 C 190.03 87.89 184.69 84.23 178.81 81.69 C 172.73 79.08 166.19 77.73 159.59 77.74 C 152.98 77.73 146.44 79.08 140.37 81.69 C 134.48 84.23 129.15 87.89 124.66 92.46 C 120.13 97.06 116.54 102.49 114.06 108.44 C 112.759 111.572 111.778 114.816 111.137 118.126 Z  M 108.503 118.927 C 106.362 116.812 104.024 114.919 101.522 113.273 L 101.522 113.273 C 100.305 118.095 99.694 123.062 99.7 128.06 L 99.7 128.06 C 99.69 136.12 101.29 144.11 104.4 151.55 C 107.4 158.7 111.75 165.22 117.21 170.73 C 117.483 171.006 117.759 171.279 118.036 171.551 C 119.276 168.855 120.255 166.042 120.961 163.153 C 117.13 158.818 114.04 153.87 111.81 148.51 C 109.11 142.02 107.73 135.05 107.74 128.01 C 107.736 124.96 107.993 121.921 108.503 118.927 Z  M 110.626 121.188 C 118.135 129.689 122.299 140.68 122.28 152.075 C 122.284 154.79 122.051 157.482 121.583 160.12 C 118.478 156.339 115.947 152.116 114.06 147.58 C 111.48 141.38 110.16 134.73 110.17 128.01 C 110.167 125.724 110.318 123.445 110.626 121.188 Z  M 89.384 107.673 C 85.382 106.52 81.229 105.931 77.048 105.931 C 70.999 105.931 65.02 107.164 59.463 109.562 C 54.076 111.889 49.191 115.25 45.088 119.443 C 36.561 128.16 31.796 139.887 31.826 152.075 L 31.826 152.075 C 31.796 164.263 36.561 175.98 45.088 184.697 C 49.191 188.9 54.076 192.251 59.463 194.588 C 65.02 196.986 70.999 198.21 77.048 198.21 C 83.097 198.21 89.086 196.986 94.643 194.588 C 100.03 192.251 104.905 188.9 109.018 184.697 C 109.627 184.074 110.216 183.435 110.78 182.778 C 109.773 181.883 108.799 180.95 107.85 179.99 C 101.2 173.28 95.91 165.35 92.25 156.63 C 88.47 147.58 86.53 137.87 86.54 128.06 L 86.54 128.06 C 86.533 121.152 87.493 114.288 89.384 107.673 L 89.384 107.673 Z  M 90.097 105.336 C 85.865 104.115 81.471 103.493 77.048 103.493 C 70.668 103.493 64.358 104.787 58.49 107.315 C 52.812 109.773 47.666 113.314 43.343 117.738 C 34.374 126.906 29.359 139.245 29.379 152.075 L 29.379 152.075 C 29.359 164.895 34.374 177.234 43.343 186.403 C 47.666 190.826 52.812 194.368 58.49 196.825 C 64.358 199.353 70.668 200.657 77.048 200.657 C 83.428 200.657 89.748 199.353 95.606 196.825 C 101.284 194.368 106.43 190.826 110.764 186.403 C 111.404 185.748 112.024 185.077 112.616 184.385 C 118.13 189.067 124.331 192.903 131 195.76 C 139.96 199.59 149.61 201.56 159.36 201.55 C 169.11 201.56 178.76 199.59 187.72 195.76 C 196.39 192.05 204.25 186.69 210.87 179.99 C 217.52 173.28 222.82 165.35 226.47 156.63 C 230.25 147.58 232.2 137.87 232.19 128.06 C 232.2 118.25 230.25 108.53 226.47 99.48 C 222.82 90.77 217.52 82.83 210.87 76.12 C 204.25 69.42 196.39 64.06 187.72 60.35 C 178.76 56.53 169.11 54.55 159.36 54.56 C 149.61 54.55 139.96 56.53 131 60.35 C 122.34 64.06 114.47 69.42 107.85 76.12 C 101.2 82.83 95.91 90.77 92.25 99.48 C 91.447 101.403 90.727 103.357 90.097 105.336 L 90.097 105.336 Z  M 159.59 178.29 L 159.59 178.29 Z  M 159.59 180.72 L 159.59 180.72 Z  M 159.59 180.72 L 159.59 180.72 C 159.59 180.72 159.59 180.72 159.59 180.72 L 159.59 180.72 Z  M 159.59 178.29 C 159.59 178.29 159.59 178.29 159.59 178.29 L 159.59 178.29 L 159.59 178.29 Z " fill-rule="evenodd" fill="rgb(222,44,104)"/><path d=" M 65.828 129.228 L 55.476 129.228 L 63.756 137.078 L 47.193 137.078 L 47.193 144.927 L 63.756 144.927 L 55.476 152.777 L 65.828 152.777 L 78.25 141.002 L 65.828 129.228 Z  M 173.375 161.407 L 160.25 147.823 L 188.687 147.823 L 188.687 134.239 L 160.25 134.239 L 173.375 120.655 L 155.875 120.655 L 136.187 141.03 L 155.875 161.404 L 173.375 161.407 Z " fill-rule="evenodd" fill="rgb(255,204,51)"/></g></g></svg>